<mxfile host="app.diagrams.net" modified="2024-02-28T09:35:26.064Z" agent="Mozilla/5.0 (Macintosh; Intel Mac OS X 10_15_7) AppleWebKit/537.36 (KHTML, like Gecko) Chrome/121.0.0.0 Safari/537.36" etag="z4rx6_gVj0jnm4FbYSvs" version="22.1.21" type="github">
  <diagram name="Page-1" id="GnvURoskgF6pgVR7ltKW">
    <mxGraphModel dx="2261" dy="1955" grid="1" gridSize="10" guides="1" tooltips="1" connect="1" arrows="1" fold="1" page="1" pageScale="1" pageWidth="827" pageHeight="1169" math="0" shadow="0">
      <root>
        <mxCell id="0" />
        <mxCell id="1" parent="0" />
        <mxCell id="kMPxljKF4UXbcINyfZyh-27" value="" style="rounded=1;whiteSpace=wrap;html=1;arcSize=3;" parent="1" vertex="1">
          <mxGeometry x="80" y="-584" width="370" height="204" as="geometry" />
        </mxCell>
        <mxCell id="kMPxljKF4UXbcINyfZyh-29" value="&lt;font style=&quot;font-size: 16px;&quot; face=&quot;Times New Roman&quot;&gt;Qualtrics Survey Event Consumer&lt;/font&gt;" style="text;html=1;strokeColor=none;fillColor=none;align=center;verticalAlign=middle;whiteSpace=wrap;rounded=0;" parent="1" vertex="1">
          <mxGeometry x="180" y="-520" width="223.75" height="30" as="geometry" />
        </mxCell>
        <mxCell id="fp_4tm2POYkT8Q4frhIq-28" value="" style="points=[[0,0],[0.25,0],[0.5,0],[0.75,0],[1,0],[1,0.25],[1,0.5],[1,0.75],[1,1],[0.75,1],[0.5,1],[0.25,1],[0,1],[0,0.75],[0,0.5],[0,0.25]];outlineConnect=0;gradientColor=none;html=1;whiteSpace=wrap;fontSize=12;fontStyle=0;container=0;pointerEvents=0;collapsible=0;recursiveResize=0;shape=mxgraph.aws4.group;grIcon=mxgraph.aws4.group_aws_cloud_alt;strokeColor=#232F3E;fillColor=none;verticalAlign=top;align=left;spacingLeft=30;fontColor=#232F3E;dashed=1;" parent="1" vertex="1">
          <mxGeometry x="-20" y="-230" width="1150" height="1060" as="geometry" />
        </mxCell>
        <mxCell id="F4uf8b6JVxHDHdUwgC62-24" value="" style="sketch=0;points=[[0,0,0],[0.25,0,0],[0.5,0,0],[0.75,0,0],[1,0,0],[0,1,0],[0.25,1,0],[0.5,1,0],[0.75,1,0],[1,1,0],[0,0.25,0],[0,0.5,0],[0,0.75,0],[1,0.25,0],[1,0.5,0],[1,0.75,0]];outlineConnect=0;fontColor=#232F3E;fillColor=#ED7100;strokeColor=#ffffff;dashed=0;verticalLabelPosition=bottom;verticalAlign=top;align=center;html=1;fontSize=12;fontStyle=0;aspect=fixed;shape=mxgraph.aws4.resourceIcon;resIcon=mxgraph.aws4.lambda;" parent="1" vertex="1">
          <mxGeometry x="437" y="-100" width="70" height="70" as="geometry" />
        </mxCell>
        <mxCell id="kMPxljKF4UXbcINyfZyh-1" value="End with OK" style="rounded=1;whiteSpace=wrap;html=1;fillColor=#d5e8d4;strokeColor=#82b366;" parent="1" vertex="1">
          <mxGeometry x="789" y="770" width="87" height="30" as="geometry" />
        </mxCell>
        <mxCell id="_qeqOSQrToJZAmNtFHsq-2" style="edgeStyle=orthogonalEdgeStyle;rounded=0;orthogonalLoop=1;jettySize=auto;html=1;" edge="1" parent="1" source="fp_4tm2POYkT8Q4frhIq-7" target="F4uf8b6JVxHDHdUwgC62-24">
          <mxGeometry relative="1" as="geometry" />
        </mxCell>
        <mxCell id="_qeqOSQrToJZAmNtFHsq-3" value="Invoke" style="edgeLabel;html=1;align=center;verticalAlign=middle;resizable=0;points=[];" vertex="1" connectable="0" parent="_qeqOSQrToJZAmNtFHsq-2">
          <mxGeometry x="-0.1" relative="1" as="geometry">
            <mxPoint as="offset" />
          </mxGeometry>
        </mxCell>
        <mxCell id="fp_4tm2POYkT8Q4frhIq-7" value="" style="sketch=0;points=[[0,0,0],[0.25,0,0],[0.5,0,0],[0.75,0,0],[1,0,0],[0,1,0],[0.25,1,0],[0.5,1,0],[0.75,1,0],[1,1,0],[0,0.25,0],[0,0.5,0],[0,0.75,0],[1,0.25,0],[1,0.5,0],[1,0.75,0]];outlineConnect=0;fontColor=#232F3E;fillColor=#E7157B;strokeColor=#ffffff;dashed=0;verticalLabelPosition=bottom;verticalAlign=top;align=center;html=1;fontSize=12;fontStyle=0;aspect=fixed;shape=mxgraph.aws4.resourceIcon;resIcon=mxgraph.aws4.sqs;" parent="1" vertex="1">
          <mxGeometry x="436.99779141104295" y="-220" width="70" height="70" as="geometry" />
        </mxCell>
        <mxCell id="_qeqOSQrToJZAmNtFHsq-85" value="" style="group" vertex="1" connectable="0" parent="1">
          <mxGeometry x="690" y="300" width="186" height="380" as="geometry" />
        </mxCell>
        <mxCell id="_qeqOSQrToJZAmNtFHsq-58" value="" style="rounded=0;whiteSpace=wrap;html=1;" vertex="1" parent="_qeqOSQrToJZAmNtFHsq-85">
          <mxGeometry width="186" height="380" as="geometry" />
        </mxCell>
        <mxCell id="_qeqOSQrToJZAmNtFHsq-59" value="Update survey distribution" style="text;html=1;strokeColor=none;fillColor=none;align=center;verticalAlign=middle;whiteSpace=wrap;rounded=0;fontSize=15;" vertex="1" parent="_qeqOSQrToJZAmNtFHsq-85">
          <mxGeometry width="186" height="30" as="geometry" />
        </mxCell>
        <mxCell id="_qeqOSQrToJZAmNtFHsq-152" style="edgeStyle=orthogonalEdgeStyle;rounded=0;orthogonalLoop=1;jettySize=auto;html=1;fillColor=#f8cecc;strokeColor=#b85450;strokeWidth=2;" edge="1" parent="_qeqOSQrToJZAmNtFHsq-85" source="_qeqOSQrToJZAmNtFHsq-61">
          <mxGeometry relative="1" as="geometry">
            <mxPoint x="210" y="-10" as="targetPoint" />
          </mxGeometry>
        </mxCell>
        <mxCell id="_qeqOSQrToJZAmNtFHsq-154" value="NO" style="edgeLabel;html=1;align=center;verticalAlign=middle;resizable=0;points=[];" vertex="1" connectable="0" parent="_qeqOSQrToJZAmNtFHsq-152">
          <mxGeometry x="-0.8159" y="-1" relative="1" as="geometry">
            <mxPoint as="offset" />
          </mxGeometry>
        </mxCell>
        <mxCell id="_qeqOSQrToJZAmNtFHsq-61" value="Saved?" style="rhombus;whiteSpace=wrap;html=1;" vertex="1" parent="_qeqOSQrToJZAmNtFHsq-85">
          <mxGeometry x="53" y="155" width="80" height="80" as="geometry" />
        </mxCell>
        <mxCell id="_qeqOSQrToJZAmNtFHsq-84" style="edgeStyle=orthogonalEdgeStyle;rounded=0;orthogonalLoop=1;jettySize=auto;html=1;entryX=0.5;entryY=0;entryDx=0;entryDy=0;" edge="1" parent="_qeqOSQrToJZAmNtFHsq-85" source="_qeqOSQrToJZAmNtFHsq-70" target="_qeqOSQrToJZAmNtFHsq-61">
          <mxGeometry relative="1" as="geometry" />
        </mxCell>
        <mxCell id="_qeqOSQrToJZAmNtFHsq-70" value="Update distribution" style="sketch=0;points=[[0,0,0],[0.25,0,0],[0.5,0,0],[0.75,0,0],[1,0,0],[0,1,0],[0.25,1,0],[0.5,1,0],[0.75,1,0],[1,1,0],[0,0.25,0],[0,0.5,0],[0,0.75,0],[1,0.25,0],[1,0.5,0],[1,0.75,0]];outlineConnect=0;fontColor=#232F3E;fillColor=#C925D1;strokeColor=#ffffff;dashed=0;verticalLabelPosition=bottom;verticalAlign=top;align=center;html=1;fontSize=12;fontStyle=0;aspect=fixed;shape=mxgraph.aws4.resourceIcon;resIcon=mxgraph.aws4.rds;" vertex="1" parent="_qeqOSQrToJZAmNtFHsq-85">
          <mxGeometry x="58" y="30" width="70" height="70" as="geometry" />
        </mxCell>
        <mxCell id="_qeqOSQrToJZAmNtFHsq-118" style="edgeStyle=orthogonalEdgeStyle;rounded=0;orthogonalLoop=1;jettySize=auto;html=1;entryX=1;entryY=0.5;entryDx=0;entryDy=0;exitX=0.09;exitY=0.5;exitDx=0;exitDy=0;exitPerimeter=0;" edge="1" parent="1" source="_qeqOSQrToJZAmNtFHsq-90" target="_qeqOSQrToJZAmNtFHsq-93">
          <mxGeometry relative="1" as="geometry">
            <Array as="points">
              <mxPoint x="404" y="120" />
              <mxPoint x="340" y="120" />
            </Array>
          </mxGeometry>
        </mxCell>
        <mxCell id="_qeqOSQrToJZAmNtFHsq-119" value="NO" style="edgeLabel;html=1;align=center;verticalAlign=middle;resizable=0;points=[];" vertex="1" connectable="0" parent="_qeqOSQrToJZAmNtFHsq-118">
          <mxGeometry x="0.3548" y="3" relative="1" as="geometry">
            <mxPoint x="20" y="-1" as="offset" />
          </mxGeometry>
        </mxCell>
        <mxCell id="_qeqOSQrToJZAmNtFHsq-90" value="Can survey response &lt;br&gt;be retrieved&lt;br&gt;ï¼Ÿ" style="outlineConnect=0;dashed=0;verticalLabelPosition=bottom;verticalAlign=top;align=center;html=1;shape=mxgraph.aws3.http_notification;fillColor=#D9A741;gradientColor=none;" vertex="1" parent="1">
          <mxGeometry x="395" y="90" width="100.5" height="63" as="geometry" />
        </mxCell>
        <mxCell id="_qeqOSQrToJZAmNtFHsq-143" style="edgeStyle=orthogonalEdgeStyle;rounded=0;orthogonalLoop=1;jettySize=auto;html=1;entryX=0.5;entryY=0;entryDx=0;entryDy=0;" edge="1" parent="1" source="_qeqOSQrToJZAmNtFHsq-93" target="_qeqOSQrToJZAmNtFHsq-115">
          <mxGeometry relative="1" as="geometry">
            <mxPoint x="310" y="310" as="targetPoint" />
            <Array as="points">
              <mxPoint x="300" y="740" />
              <mxPoint x="394" y="740" />
            </Array>
          </mxGeometry>
        </mxCell>
        <mxCell id="_qeqOSQrToJZAmNtFHsq-145" value="NO" style="edgeLabel;html=1;align=center;verticalAlign=middle;resizable=0;points=[];" vertex="1" connectable="0" parent="_qeqOSQrToJZAmNtFHsq-143">
          <mxGeometry x="-0.3238" relative="1" as="geometry">
            <mxPoint as="offset" />
          </mxGeometry>
        </mxCell>
        <mxCell id="_qeqOSQrToJZAmNtFHsq-93" value="401&lt;br&gt;?" style="rhombus;whiteSpace=wrap;html=1;" vertex="1" parent="1">
          <mxGeometry x="260" y="81.5" width="80" height="80" as="geometry" />
        </mxCell>
        <mxCell id="_qeqOSQrToJZAmNtFHsq-106" value="" style="group" vertex="1" connectable="0" parent="1">
          <mxGeometry x="90" y="-210" width="130" height="360" as="geometry" />
        </mxCell>
        <mxCell id="_qeqOSQrToJZAmNtFHsq-35" value="" style="rounded=0;whiteSpace=wrap;html=1;container=0;" vertex="1" parent="_qeqOSQrToJZAmNtFHsq-106">
          <mxGeometry width="130" height="360" as="geometry" />
        </mxCell>
        <mxCell id="_qeqOSQrToJZAmNtFHsq-113" style="edgeStyle=orthogonalEdgeStyle;rounded=0;orthogonalLoop=1;jettySize=auto;html=1;endArrow=none;endFill=0;" edge="1" parent="_qeqOSQrToJZAmNtFHsq-106" source="_qeqOSQrToJZAmNtFHsq-41">
          <mxGeometry relative="1" as="geometry">
            <mxPoint x="140" y="370" as="targetPoint" />
          </mxGeometry>
        </mxCell>
        <mxCell id="_qeqOSQrToJZAmNtFHsq-134" value="" style="group" vertex="1" connectable="0" parent="_qeqOSQrToJZAmNtFHsq-106">
          <mxGeometry width="130" height="320" as="geometry" />
        </mxCell>
        <mxCell id="_qeqOSQrToJZAmNtFHsq-36" value="Retry if&amp;nbsp; possible" style="text;html=1;strokeColor=none;fillColor=none;align=center;verticalAlign=middle;whiteSpace=wrap;rounded=0;fontSize=15;container=0;" vertex="1" parent="_qeqOSQrToJZAmNtFHsq-134">
          <mxGeometry width="130" height="30" as="geometry" />
        </mxCell>
        <mxCell id="_qeqOSQrToJZAmNtFHsq-37" value="Is max retry&amp;nbsp; reached?" style="rhombus;whiteSpace=wrap;html=1;container=0;" vertex="1" parent="_qeqOSQrToJZAmNtFHsq-134">
          <mxGeometry x="25" y="40" width="80" height="80" as="geometry" />
        </mxCell>
        <mxCell id="_qeqOSQrToJZAmNtFHsq-38" value="Get time for the next retry" style="rounded=0;whiteSpace=wrap;html=1;container=0;" vertex="1" parent="_qeqOSQrToJZAmNtFHsq-134">
          <mxGeometry x="17.5" y="170" width="95" height="40" as="geometry" />
        </mxCell>
        <mxCell id="_qeqOSQrToJZAmNtFHsq-39" style="edgeStyle=orthogonalEdgeStyle;rounded=0;orthogonalLoop=1;jettySize=auto;html=1;entryX=0.5;entryY=0;entryDx=0;entryDy=0;" edge="1" parent="_qeqOSQrToJZAmNtFHsq-134" source="_qeqOSQrToJZAmNtFHsq-37" target="_qeqOSQrToJZAmNtFHsq-38">
          <mxGeometry relative="1" as="geometry" />
        </mxCell>
        <mxCell id="_qeqOSQrToJZAmNtFHsq-40" value="NO" style="edgeLabel;html=1;align=center;verticalAlign=middle;resizable=0;points=[];container=0;" vertex="1" connectable="0" parent="_qeqOSQrToJZAmNtFHsq-39">
          <mxGeometry x="0.0667" relative="1" as="geometry">
            <mxPoint y="-3" as="offset" />
          </mxGeometry>
        </mxCell>
        <mxCell id="_qeqOSQrToJZAmNtFHsq-41" value="Put with delay &lt;br&gt;for next retry" style="sketch=0;points=[[0,0,0],[0.25,0,0],[0.5,0,0],[0.75,0,0],[1,0,0],[0,1,0],[0.25,1,0],[0.5,1,0],[0.75,1,0],[1,1,0],[0,0.25,0],[0,0.5,0],[0,0.75,0],[1,0.25,0],[1,0.5,0],[1,0.75,0]];outlineConnect=0;fontColor=#232F3E;fillColor=#E7157B;strokeColor=#ffffff;dashed=0;verticalLabelPosition=bottom;verticalAlign=top;align=center;html=1;fontSize=12;fontStyle=0;aspect=fixed;shape=mxgraph.aws4.resourceIcon;resIcon=mxgraph.aws4.sqs;container=0;" vertex="1" parent="_qeqOSQrToJZAmNtFHsq-134">
          <mxGeometry x="29.997791411042954" y="250" width="70" height="70" as="geometry" />
        </mxCell>
        <mxCell id="_qeqOSQrToJZAmNtFHsq-44" style="edgeStyle=orthogonalEdgeStyle;rounded=0;orthogonalLoop=1;jettySize=auto;html=1;" edge="1" parent="_qeqOSQrToJZAmNtFHsq-134" source="_qeqOSQrToJZAmNtFHsq-38" target="_qeqOSQrToJZAmNtFHsq-41">
          <mxGeometry relative="1" as="geometry" />
        </mxCell>
        <mxCell id="_qeqOSQrToJZAmNtFHsq-108" style="edgeStyle=orthogonalEdgeStyle;rounded=0;orthogonalLoop=1;jettySize=auto;html=1;entryX=0.5;entryY=0;entryDx=0;entryDy=0;exitX=0.5;exitY=0;exitDx=0;exitDy=0;" edge="1" parent="1" source="_qeqOSQrToJZAmNtFHsq-93" target="_qeqOSQrToJZAmNtFHsq-37">
          <mxGeometry relative="1" as="geometry">
            <Array as="points">
              <mxPoint x="290" y="50" />
              <mxPoint x="290" y="-180" />
              <mxPoint x="155" y="-180" />
            </Array>
          </mxGeometry>
        </mxCell>
        <mxCell id="_qeqOSQrToJZAmNtFHsq-144" value="YES" style="edgeLabel;html=1;align=center;verticalAlign=middle;resizable=0;points=[];" vertex="1" connectable="0" parent="_qeqOSQrToJZAmNtFHsq-108">
          <mxGeometry x="-0.5692" y="-1" relative="1" as="geometry">
            <mxPoint x="-1" y="59" as="offset" />
          </mxGeometry>
        </mxCell>
        <mxCell id="_qeqOSQrToJZAmNtFHsq-115" value="End with Exception" style="rounded=1;whiteSpace=wrap;html=1;fillColor=#f8cecc;strokeColor=#b85450;" vertex="1" parent="1">
          <mxGeometry x="350" y="770" width="87" height="30" as="geometry" />
        </mxCell>
        <mxCell id="_qeqOSQrToJZAmNtFHsq-116" style="edgeStyle=orthogonalEdgeStyle;rounded=0;orthogonalLoop=1;jettySize=auto;html=1;entryX=0;entryY=0.5;entryDx=0;entryDy=0;" edge="1" parent="1" source="_qeqOSQrToJZAmNtFHsq-37" target="_qeqOSQrToJZAmNtFHsq-115">
          <mxGeometry relative="1" as="geometry">
            <Array as="points">
              <mxPoint x="70" y="-130" />
              <mxPoint x="70" y="785" />
            </Array>
          </mxGeometry>
        </mxCell>
        <mxCell id="_qeqOSQrToJZAmNtFHsq-148" value="YES" style="edgeLabel;html=1;align=center;verticalAlign=middle;resizable=0;points=[];" vertex="1" connectable="0" parent="_qeqOSQrToJZAmNtFHsq-116">
          <mxGeometry x="-0.9774" y="4" relative="1" as="geometry">
            <mxPoint x="-30" y="21" as="offset" />
          </mxGeometry>
        </mxCell>
        <mxCell id="_qeqOSQrToJZAmNtFHsq-130" value="" style="group;dashed=1;strokeColor=default;dashPattern=8 8;" vertex="1" connectable="0" parent="1">
          <mxGeometry x="686" y="-80" width="190" height="170" as="geometry" />
        </mxCell>
        <mxCell id="_qeqOSQrToJZAmNtFHsq-30" value="" style="rounded=0;whiteSpace=wrap;html=1;" vertex="1" parent="_qeqOSQrToJZAmNtFHsq-130">
          <mxGeometry width="190" height="170" as="geometry" />
        </mxCell>
        <mxCell id="_qeqOSQrToJZAmNtFHsq-31" value="Check whether survey distribution is updatable" style="text;html=1;strokeColor=none;fillColor=none;align=center;verticalAlign=middle;whiteSpace=wrap;rounded=0;fontSize=15;fontColor=#000000;" vertex="1" parent="_qeqOSQrToJZAmNtFHsq-130">
          <mxGeometry width="190" height="30" as="geometry" />
        </mxCell>
        <mxCell id="_qeqOSQrToJZAmNtFHsq-32" value="Can current state be transferred to the new state&lt;br&gt;?" style="rhombus;whiteSpace=wrap;html=1;" vertex="1" parent="_qeqOSQrToJZAmNtFHsq-130">
          <mxGeometry x="45" y="50" width="100" height="80" as="geometry" />
        </mxCell>
        <mxCell id="_qeqOSQrToJZAmNtFHsq-33" style="edgeStyle=orthogonalEdgeStyle;rounded=0;orthogonalLoop=1;jettySize=auto;html=1;entryX=0;entryY=0.5;entryDx=0;entryDy=0;" edge="1" parent="1" source="_qeqOSQrToJZAmNtFHsq-32" target="kMPxljKF4UXbcINyfZyh-1">
          <mxGeometry relative="1" as="geometry">
            <Array as="points">
              <mxPoint x="250" y="10" />
              <mxPoint x="250" y="710" />
              <mxPoint x="730" y="710" />
              <mxPoint x="730" y="785" />
            </Array>
          </mxGeometry>
        </mxCell>
        <mxCell id="_qeqOSQrToJZAmNtFHsq-34" value="NO" style="edgeLabel;html=1;align=center;verticalAlign=middle;resizable=0;points=[];" vertex="1" connectable="0" parent="_qeqOSQrToJZAmNtFHsq-33">
          <mxGeometry x="-0.3173" y="-1" relative="1" as="geometry">
            <mxPoint y="-461" as="offset" />
          </mxGeometry>
        </mxCell>
        <mxCell id="_qeqOSQrToJZAmNtFHsq-149" value="NO" style="edgeLabel;html=1;align=center;verticalAlign=middle;resizable=0;points=[];" vertex="1" connectable="0" parent="_qeqOSQrToJZAmNtFHsq-33">
          <mxGeometry x="-0.9643" relative="1" as="geometry">
            <mxPoint x="6" as="offset" />
          </mxGeometry>
        </mxCell>
        <mxCell id="_qeqOSQrToJZAmNtFHsq-91" style="edgeStyle=orthogonalEdgeStyle;rounded=0;orthogonalLoop=1;jettySize=auto;html=1;entryX=0.55;entryY=0.075;entryDx=0;entryDy=0;entryPerimeter=0;exitX=0.5;exitY=1;exitDx=0;exitDy=0;" edge="1" parent="1" source="_qeqOSQrToJZAmNtFHsq-32" target="_qeqOSQrToJZAmNtFHsq-90">
          <mxGeometry relative="1" as="geometry">
            <Array as="points">
              <mxPoint x="781" y="70" />
              <mxPoint x="450" y="70" />
            </Array>
          </mxGeometry>
        </mxCell>
        <mxCell id="_qeqOSQrToJZAmNtFHsq-142" value="YES" style="edgeLabel;html=1;align=center;verticalAlign=middle;resizable=0;points=[];" vertex="1" connectable="0" parent="_qeqOSQrToJZAmNtFHsq-91">
          <mxGeometry x="-0.7486" relative="1" as="geometry">
            <mxPoint x="-22" y="-2" as="offset" />
          </mxGeometry>
        </mxCell>
        <mxCell id="_qeqOSQrToJZAmNtFHsq-133" value="" style="group" vertex="1" connectable="0" parent="1">
          <mxGeometry x="910" y="-220" width="171" height="560" as="geometry" />
        </mxCell>
        <mxCell id="_qeqOSQrToJZAmNtFHsq-6" value="" style="rounded=0;whiteSpace=wrap;html=1;dashed=1;" vertex="1" parent="_qeqOSQrToJZAmNtFHsq-133">
          <mxGeometry width="170" height="560" as="geometry" />
        </mxCell>
        <mxCell id="_qeqOSQrToJZAmNtFHsq-7" value="Check whether it is the&lt;br&gt;&amp;nbsp;time for consuming" style="text;html=1;strokeColor=none;fillColor=none;align=center;verticalAlign=middle;whiteSpace=wrap;rounded=0;fontSize=15;" vertex="1" parent="_qeqOSQrToJZAmNtFHsq-133">
          <mxGeometry x="1" width="170" height="30" as="geometry" />
        </mxCell>
        <mxCell id="_qeqOSQrToJZAmNtFHsq-8" value="Reput If delay not expired." style="sketch=0;points=[[0,0,0],[0.25,0,0],[0.5,0,0],[0.75,0,0],[1,0,0],[0,1,0],[0.25,1,0],[0.5,1,0],[0.75,1,0],[1,1,0],[0,0.25,0],[0,0.5,0],[0,0.75,0],[1,0.25,0],[1,0.5,0],[1,0.75,0]];outlineConnect=0;fontColor=#232F3E;fillColor=#E7157B;strokeColor=#ffffff;dashed=0;verticalLabelPosition=bottom;verticalAlign=top;align=center;html=1;fontSize=12;fontStyle=0;aspect=fixed;shape=mxgraph.aws4.resourceIcon;resIcon=mxgraph.aws4.sqs;" vertex="1" parent="_qeqOSQrToJZAmNtFHsq-133">
          <mxGeometry x="49.997791411042954" y="50" width="70" height="70" as="geometry" />
        </mxCell>
        <mxCell id="_qeqOSQrToJZAmNtFHsq-15" value="Get next time for consuming" style="rounded=0;whiteSpace=wrap;html=1;" vertex="1" parent="_qeqOSQrToJZAmNtFHsq-133">
          <mxGeometry x="37.5" y="285" width="95" height="40" as="geometry" />
        </mxCell>
        <mxCell id="_qeqOSQrToJZAmNtFHsq-18" value="Put If delay not expired." style="sketch=0;points=[[0,0,0],[0.25,0,0],[0.5,0,0],[0.75,0,0],[1,0,0],[0,1,0],[0.25,1,0],[0.5,1,0],[0.75,1,0],[1,1,0],[0,0.25,0],[0,0.5,0],[0,0.75,0],[1,0.25,0],[1,0.5,0],[1,0.75,0]];outlineConnect=0;fontColor=#232F3E;fillColor=#E7157B;strokeColor=#ffffff;dashed=0;verticalLabelPosition=bottom;verticalAlign=top;align=center;html=1;fontSize=12;fontStyle=0;aspect=fixed;shape=mxgraph.aws4.resourceIcon;resIcon=mxgraph.aws4.sqs;" vertex="1" parent="_qeqOSQrToJZAmNtFHsq-133">
          <mxGeometry x="49.997791411042954" y="350" width="70" height="70" as="geometry" />
        </mxCell>
        <mxCell id="_qeqOSQrToJZAmNtFHsq-19" style="edgeStyle=orthogonalEdgeStyle;rounded=0;orthogonalLoop=1;jettySize=auto;html=1;" edge="1" parent="_qeqOSQrToJZAmNtFHsq-133" source="_qeqOSQrToJZAmNtFHsq-15" target="_qeqOSQrToJZAmNtFHsq-18">
          <mxGeometry relative="1" as="geometry" />
        </mxCell>
        <mxCell id="_qeqOSQrToJZAmNtFHsq-21" value="" style="edgeStyle=orthogonalEdgeStyle;rounded=0;orthogonalLoop=1;jettySize=auto;html=1;" edge="1" parent="_qeqOSQrToJZAmNtFHsq-133" source="_qeqOSQrToJZAmNtFHsq-8" target="_qeqOSQrToJZAmNtFHsq-20">
          <mxGeometry relative="1" as="geometry">
            <mxPoint x="125" y="130" as="sourcePoint" />
            <mxPoint x="125" y="220" as="targetPoint" />
          </mxGeometry>
        </mxCell>
        <mxCell id="_qeqOSQrToJZAmNtFHsq-20" value="Successfully reput?" style="rhombus;whiteSpace=wrap;html=1;" vertex="1" parent="_qeqOSQrToJZAmNtFHsq-133">
          <mxGeometry x="45" y="160" width="80" height="80" as="geometry" />
        </mxCell>
        <mxCell id="_qeqOSQrToJZAmNtFHsq-16" style="edgeStyle=orthogonalEdgeStyle;rounded=0;orthogonalLoop=1;jettySize=auto;html=1;" edge="1" parent="_qeqOSQrToJZAmNtFHsq-133" source="_qeqOSQrToJZAmNtFHsq-20" target="_qeqOSQrToJZAmNtFHsq-15">
          <mxGeometry relative="1" as="geometry" />
        </mxCell>
        <mxCell id="_qeqOSQrToJZAmNtFHsq-17" value="NO" style="edgeLabel;html=1;align=center;verticalAlign=middle;resizable=0;points=[];" vertex="1" connectable="0" parent="_qeqOSQrToJZAmNtFHsq-16">
          <mxGeometry x="0.1429" y="1" relative="1" as="geometry">
            <mxPoint y="-8" as="offset" />
          </mxGeometry>
        </mxCell>
        <mxCell id="_qeqOSQrToJZAmNtFHsq-137" style="edgeStyle=orthogonalEdgeStyle;rounded=0;orthogonalLoop=1;jettySize=auto;html=1;endArrow=none;endFill=0;" edge="1" parent="_qeqOSQrToJZAmNtFHsq-133" source="_qeqOSQrToJZAmNtFHsq-24">
          <mxGeometry relative="1" as="geometry">
            <mxPoint x="190" y="510" as="targetPoint" />
          </mxGeometry>
        </mxCell>
        <mxCell id="_qeqOSQrToJZAmNtFHsq-138" value="YES" style="edgeLabel;html=1;align=center;verticalAlign=middle;resizable=0;points=[];" vertex="1" connectable="0" parent="_qeqOSQrToJZAmNtFHsq-137">
          <mxGeometry x="-0.2678" y="1" relative="1" as="geometry">
            <mxPoint x="-3" as="offset" />
          </mxGeometry>
        </mxCell>
        <mxCell id="_qeqOSQrToJZAmNtFHsq-24" value="Successfully put?" style="rhombus;whiteSpace=wrap;html=1;" vertex="1" parent="_qeqOSQrToJZAmNtFHsq-133">
          <mxGeometry x="45" y="470" width="80" height="80" as="geometry" />
        </mxCell>
        <mxCell id="_qeqOSQrToJZAmNtFHsq-25" style="edgeStyle=orthogonalEdgeStyle;rounded=0;orthogonalLoop=1;jettySize=auto;html=1;" edge="1" parent="_qeqOSQrToJZAmNtFHsq-133" source="_qeqOSQrToJZAmNtFHsq-18" target="_qeqOSQrToJZAmNtFHsq-24">
          <mxGeometry relative="1" as="geometry" />
        </mxCell>
        <mxCell id="_qeqOSQrToJZAmNtFHsq-12" style="edgeStyle=orthogonalEdgeStyle;rounded=0;orthogonalLoop=1;jettySize=auto;html=1;entryX=0.5;entryY=0;entryDx=0;entryDy=0;entryPerimeter=0;" edge="1" parent="1" source="F4uf8b6JVxHDHdUwgC62-24" target="_qeqOSQrToJZAmNtFHsq-8">
          <mxGeometry relative="1" as="geometry">
            <mxPoint x="1025" y="-180" as="targetPoint" />
            <Array as="points">
              <mxPoint x="670" y="-65" />
              <mxPoint x="670" y="-190" />
              <mxPoint x="995" y="-190" />
            </Array>
          </mxGeometry>
        </mxCell>
        <mxCell id="_qeqOSQrToJZAmNtFHsq-73" style="edgeStyle=orthogonalEdgeStyle;rounded=0;orthogonalLoop=1;jettySize=auto;html=1;entryX=1;entryY=0.5;entryDx=0;entryDy=0;" edge="1" parent="1" source="_qeqOSQrToJZAmNtFHsq-24" target="_qeqOSQrToJZAmNtFHsq-32">
          <mxGeometry relative="1" as="geometry">
            <mxPoint x="590.75" y="32" as="targetPoint" />
            <Array as="points">
              <mxPoint x="900" y="290" />
              <mxPoint x="900" y="10" />
            </Array>
          </mxGeometry>
        </mxCell>
        <mxCell id="_qeqOSQrToJZAmNtFHsq-74" value="NO" style="edgeLabel;html=1;align=center;verticalAlign=middle;resizable=0;points=[];" vertex="1" connectable="0" parent="_qeqOSQrToJZAmNtFHsq-73">
          <mxGeometry x="-0.0909" y="1" relative="1" as="geometry">
            <mxPoint x="31" y="127" as="offset" />
          </mxGeometry>
        </mxCell>
        <mxCell id="_qeqOSQrToJZAmNtFHsq-135" style="edgeStyle=orthogonalEdgeStyle;rounded=0;orthogonalLoop=1;jettySize=auto;html=1;entryX=1;entryY=0.5;entryDx=0;entryDy=0;" edge="1" parent="1" source="_qeqOSQrToJZAmNtFHsq-20" target="kMPxljKF4UXbcINyfZyh-1">
          <mxGeometry relative="1" as="geometry">
            <Array as="points">
              <mxPoint x="1100" y="-20" />
              <mxPoint x="1100" y="785" />
            </Array>
          </mxGeometry>
        </mxCell>
        <mxCell id="_qeqOSQrToJZAmNtFHsq-136" value="YES" style="edgeLabel;html=1;align=center;verticalAlign=middle;resizable=0;points=[];" vertex="1" connectable="0" parent="_qeqOSQrToJZAmNtFHsq-135">
          <mxGeometry x="-0.9639" relative="1" as="geometry">
            <mxPoint x="2" as="offset" />
          </mxGeometry>
        </mxCell>
        <mxCell id="_qeqOSQrToJZAmNtFHsq-45" value="" style="rounded=0;whiteSpace=wrap;html=1;" vertex="1" parent="1">
          <mxGeometry x="355" y="310" width="160" height="380" as="geometry" />
        </mxCell>
        <mxCell id="_qeqOSQrToJZAmNtFHsq-47" value="Save survey response" style="text;html=1;strokeColor=none;fillColor=none;align=center;verticalAlign=middle;whiteSpace=wrap;rounded=0;fontSize=15;" vertex="1" parent="1">
          <mxGeometry x="350" y="310" width="170" height="30" as="geometry" />
        </mxCell>
        <mxCell id="_qeqOSQrToJZAmNtFHsq-49" value="Saved?" style="rhombus;whiteSpace=wrap;html=1;" vertex="1" parent="1">
          <mxGeometry x="395" y="465" width="80" height="80" as="geometry" />
        </mxCell>
        <mxCell id="_qeqOSQrToJZAmNtFHsq-53" style="edgeStyle=orthogonalEdgeStyle;rounded=0;orthogonalLoop=1;jettySize=auto;html=1;fillColor=#d5e8d4;strokeColor=#82b366;strokeWidth=2;" edge="1" parent="1" source="_qeqOSQrToJZAmNtFHsq-49">
          <mxGeometry relative="1" as="geometry">
            <mxPoint x="900" y="90" as="targetPoint" />
            <Array as="points">
              <mxPoint x="590" y="505" />
              <mxPoint x="590" y="220" />
              <mxPoint x="900" y="220" />
            </Array>
          </mxGeometry>
        </mxCell>
        <mxCell id="_qeqOSQrToJZAmNtFHsq-54" value="NO" style="edgeLabel;html=1;align=center;verticalAlign=middle;resizable=0;points=[];" vertex="1" connectable="0" parent="_qeqOSQrToJZAmNtFHsq-53">
          <mxGeometry x="-0.2" relative="1" as="geometry">
            <mxPoint x="-94" y="221" as="offset" />
          </mxGeometry>
        </mxCell>
        <mxCell id="_qeqOSQrToJZAmNtFHsq-82" style="edgeStyle=orthogonalEdgeStyle;rounded=0;orthogonalLoop=1;jettySize=auto;html=1;" edge="1" parent="1" source="_qeqOSQrToJZAmNtFHsq-69" target="_qeqOSQrToJZAmNtFHsq-49">
          <mxGeometry relative="1" as="geometry" />
        </mxCell>
        <mxCell id="_qeqOSQrToJZAmNtFHsq-69" value="Save response" style="sketch=0;points=[[0,0,0],[0.25,0,0],[0.5,0,0],[0.75,0,0],[1,0,0],[0,1,0],[0.25,1,0],[0.5,1,0],[0.75,1,0],[1,1,0],[0,0.25,0],[0,0.5,0],[0,0.75,0],[1,0.25,0],[1,0.5,0],[1,0.75,0]];outlineConnect=0;fontColor=#232F3E;fillColor=#C925D1;strokeColor=#ffffff;dashed=0;verticalLabelPosition=bottom;verticalAlign=top;align=center;html=1;fontSize=12;fontStyle=0;aspect=fixed;shape=mxgraph.aws4.resourceIcon;resIcon=mxgraph.aws4.dynamodb;" vertex="1" parent="1">
          <mxGeometry x="400" y="350" width="70" height="70" as="geometry" />
        </mxCell>
        <mxCell id="_qeqOSQrToJZAmNtFHsq-124" style="edgeStyle=orthogonalEdgeStyle;rounded=0;orthogonalLoop=1;jettySize=auto;html=1;entryX=0.5;entryY=1;entryDx=0;entryDy=0;exitX=0.5;exitY=1;exitDx=0;exitDy=0;" edge="1" parent="1" source="_qeqOSQrToJZAmNtFHsq-49" target="_qeqOSQrToJZAmNtFHsq-59">
          <mxGeometry relative="1" as="geometry">
            <Array as="points">
              <mxPoint x="435" y="570" />
              <mxPoint x="620" y="570" />
              <mxPoint x="620" y="330" />
            </Array>
          </mxGeometry>
        </mxCell>
        <mxCell id="_qeqOSQrToJZAmNtFHsq-125" value="YES" style="edgeLabel;html=1;align=center;verticalAlign=middle;resizable=0;points=[];" vertex="1" connectable="0" parent="_qeqOSQrToJZAmNtFHsq-124">
          <mxGeometry x="-0.9102" relative="1" as="geometry">
            <mxPoint x="15" as="offset" />
          </mxGeometry>
        </mxCell>
        <mxCell id="_qeqOSQrToJZAmNtFHsq-120" style="edgeStyle=orthogonalEdgeStyle;rounded=0;orthogonalLoop=1;jettySize=auto;html=1;entryX=0.5;entryY=0;entryDx=0;entryDy=0;entryPerimeter=0;exitX=0.55;exitY=1;exitDx=0;exitDy=0;exitPerimeter=0;" edge="1" parent="1" source="_qeqOSQrToJZAmNtFHsq-90" target="_qeqOSQrToJZAmNtFHsq-69">
          <mxGeometry relative="1" as="geometry">
            <Array as="points">
              <mxPoint x="450" y="240" />
              <mxPoint x="430" y="240" />
              <mxPoint x="430" y="340" />
              <mxPoint x="435" y="340" />
            </Array>
          </mxGeometry>
        </mxCell>
        <mxCell id="_qeqOSQrToJZAmNtFHsq-141" value="YES" style="edgeLabel;html=1;align=center;verticalAlign=middle;resizable=0;points=[];" vertex="1" connectable="0" parent="_qeqOSQrToJZAmNtFHsq-120">
          <mxGeometry x="-0.3309" y="-4" relative="1" as="geometry">
            <mxPoint y="3" as="offset" />
          </mxGeometry>
        </mxCell>
        <mxCell id="_qeqOSQrToJZAmNtFHsq-151" style="edgeStyle=orthogonalEdgeStyle;rounded=0;orthogonalLoop=1;jettySize=auto;html=1;entryX=0.5;entryY=0;entryDx=0;entryDy=0;entryPerimeter=0;fillColor=#d5e8d4;strokeColor=#82b366;strokeWidth=2;" edge="1" parent="1" source="_qeqOSQrToJZAmNtFHsq-32" target="_qeqOSQrToJZAmNtFHsq-69">
          <mxGeometry relative="1" as="geometry">
            <Array as="points">
              <mxPoint x="781" y="140" />
              <mxPoint x="570" y="140" />
              <mxPoint x="570" y="350" />
            </Array>
          </mxGeometry>
        </mxCell>
        <mxCell id="_qeqOSQrToJZAmNtFHsq-65" style="edgeStyle=orthogonalEdgeStyle;rounded=0;orthogonalLoop=1;jettySize=auto;html=1;entryX=0.5;entryY=0;entryDx=0;entryDy=0;" edge="1" parent="1" source="_qeqOSQrToJZAmNtFHsq-61" target="kMPxljKF4UXbcINyfZyh-1">
          <mxGeometry relative="1" as="geometry">
            <mxPoint x="783" y="590" as="targetPoint" />
          </mxGeometry>
        </mxCell>
        <mxCell id="_qeqOSQrToJZAmNtFHsq-155" value="YES" style="edgeLabel;html=1;align=center;verticalAlign=middle;resizable=0;points=[];" vertex="1" connectable="0" parent="_qeqOSQrToJZAmNtFHsq-65">
          <mxGeometry x="-0.8102" y="-1" relative="1" as="geometry">
            <mxPoint as="offset" />
          </mxGeometry>
        </mxCell>
      </root>
    </mxGraphModel>
  </diagram>
</mxfile>
